<?xml version="1.0" encoding="UTF-8" standalone="no"?>
<!-- Created with Inkscape (http://www.inkscape.org/) -->

<svg
   xmlns:dc="http://purl.org/dc/elements/1.1/"
   xmlns:cc="http://creativecommons.org/ns#"
   xmlns:rdf="http://www.w3.org/1999/02/22-rdf-syntax-ns#"
   xmlns:svg="http://www.w3.org/2000/svg"
   xmlns="http://www.w3.org/2000/svg"
   xmlns:sodipodi="http://sodipodi.sourceforge.net/DTD/sodipodi-0.dtd"
   xmlns:inkscape="http://www.inkscape.org/namespaces/inkscape"
   width="210mm"
   height="297mm"
   viewBox="0 0 744.09448819 1052.3622047"
   id="svg150944"
   version="1.1"
   inkscape:version="0.91 r13725"
   sodipodi:docname="drawing3.svg">
  <defs
     id="defs150946">
    <marker
       inkscape:stockid="Arrow1Lend"
       orient="auto"
       refY="0.0"
       refX="0.0"
       id="Arrow1Lend"
       style="overflow:visible;"
       inkscape:isstock="true">
      <path
         id="path155555"
         d="M 0.0,0.0 L 5.0,-5.0 L -12.5,0.0 L 5.0,5.0 L 0.0,0.0 z "
         style="fill-rule:evenodd;stroke:#000000;stroke-width:1pt;stroke-opacity:1;fill:#000000;fill-opacity:1"
         transform="scale(0.8) rotate(180) translate(12.5,0)" />
    </marker>
    <marker
       inkscape:stockid="Arrow1Lstart"
       orient="auto"
       refY="0.0"
       refX="0.0"
       id="Arrow1Lstart"
       style="overflow:visible"
       inkscape:isstock="true">
      <path
         id="path155552"
         d="M 0.0,0.0 L 5.0,-5.0 L -12.5,0.0 L 5.0,5.0 L 0.0,0.0 z "
         style="fill-rule:evenodd;stroke:#000000;stroke-width:1pt;stroke-opacity:1;fill:#000000;fill-opacity:1"
         transform="scale(0.8) translate(12.5,0)" />
    </marker>
  </defs>
  <sodipodi:namedview
     id="base"
     pagecolor="#ffffff"
     bordercolor="#666666"
     borderopacity="1.0"
     inkscape:pageopacity="0.0"
     inkscape:pageshadow="2"
     inkscape:zoom="0.7"
     inkscape:cx="22.363111"
     inkscape:cy="791.42818"
     inkscape:document-units="px"
     inkscape:current-layer="layer1"
     showgrid="false"
     inkscape:window-width="1920"
     inkscape:window-height="1017"
     inkscape:window-x="1436"
     inkscape:window-y="0"
     inkscape:window-maximized="1" />
  <metadata
     id="metadata150949">
    <rdf:RDF>
      <cc:Work
         rdf:about="">
        <dc:format>image/svg+xml</dc:format>
        <dc:type
           rdf:resource="http://purl.org/dc/dcmitype/StillImage" />
        <dc:title></dc:title>
      </cc:Work>
    </rdf:RDF>
  </metadata>
  <g
     inkscape:label="Layer 1"
     inkscape:groupmode="layer"
     id="layer1">
    <path
       inkscape:connector-curvature="0"
       style="fill:#000000"
       d="m 199.42927,431.37514 c 0,0 0,0 0,0 1.14765,0 2.29538,-0.95637 2.29538,-2.1041 l 4.20824,-61.59314 3.82568,46.29045 c 0.19103,1.14772 1.14772,2.10416 2.29537,2.10416 0,0 0,0 0,0 1.14772,0 2.10409,-0.95644 2.29538,-2.10416 l 4.39953,-42.27349 3.63439,26.97087 c 0.19103,1.14772 1.14766,1.9128 2.29538,1.9128 1.14772,0 2.10409,-0.76508 2.29538,-1.9128 l 4.59082,-23.1452 3.4431,8.41643 c 0.3827,0.95637 1.14772,1.33894 2.10409,1.33894 l 11.47702,0 c 1.33893,0 2.29537,-0.95643 2.29537,-2.29538 0,-1.33894 -0.95644,-2.29537 -2.29537,-2.29537 l -9.7555,0 -5.73848,-13.96369 c -0.3827,-0.95643 -1.33895,-1.53029 -2.29538,-1.33894 -0.95643,0 -1.9128,0.76508 -2.10409,1.9128 l -3.63439,17.40672 -4.39953,-32.70934 c -0.19103,-1.14772 -1.14766,-1.91287 -2.29538,-1.91287 0,0 0,0 0,0 -1.14772,0 -2.10409,0.95643 -2.29538,2.10415 l -3.82567,36.53502 -4.20818,-51.83764 c -0.19103,-1.14772 -1.14779,-2.10416 -2.29544,-2.10416 0,0 0,0 0,0 -1.14773,0 -2.29545,0.95644 -2.29545,2.10416 l -4.39947,65.22747 -3.63438,-34.62222 c -0.19103,-1.14772 -0.95644,-2.10409 -2.10409,-2.10409 -1.14772,0 -2.10416,0.76508 -2.29545,1.9128 l -3.63432,17.40672 -4.39953,-32.70934 c -0.19103,-1.14772 -1.14766,-1.91287 -2.29538,-1.91287 0,0 0,0 0,0 -1.14772,0 -2.10415,0.95643 -2.29538,2.10415 l -4.39953,43.80379 -3.82567,-22.5714 c -0.19104,-0.95643 -0.95644,-1.9128 -2.10416,-1.9128 -1.14766,0 -2.10409,0.57373 -2.29538,1.53023 l -4.39953,13.00725 -3.82561,-8.60772 c -0.3827,-0.76514 -1.14772,-1.339 -1.91287,-1.339 -0.76508,0 -1.72151,0.3827 -2.10409,0.95643 l -4.01696,5.92976 -4.59075,-10.13801 c -0.38271,-0.76508 -1.33901,-1.33894 -2.29538,-1.33894 -0.95644,0 -1.72158,0.57373 -2.10416,1.53023 l -4.59075,13.38982 -3.82568,-7.46005 c -0.3827,-0.57374 -0.95643,-1.14766 -1.72158,-1.14766 -0.76508,-0.19103 -1.53023,0.19103 -1.9128,0.57373 l -4.97333,4.78204 -4.78211,-3.44309 c -0.76515,-0.57374 -1.53029,-0.57374 -2.29538,-0.19104 l -5.54725,2.67802 -5.54719,-1.33901 c -0.19103,0 -0.3827,0 -0.57374,0 l -20.467239,0 c -1.33901,0 -2.29538,0.95637 -2.29538,2.29538 0,1.33901 0.95637,2.29538 2.29538,2.29538 l 20.467239,0 5.92977,1.33901 c 0.57373,0.19103 1.14772,0 1.53029,-0.19104 l 4.97333,-2.48666 5.16468,3.82567 c 0.95637,0.57373 2.1041,0.57373 3.06053,-0.19103 l 4.0169,-4.01696 4.7821,9.56415 c 0.3827,0.76515 1.33901,1.33901 2.29538,1.33901 0.95643,0 1.72158,-0.76521 2.10416,-1.5303 l 4.39947,-13.00725 3.82567,8.60772 c 0.3827,0.76515 1.14772,1.33901 1.91287,1.33901 0.76508,0 1.72151,-0.3827 2.10409,-0.95644 l 4.01696,-6.12105 4.59075,10.13801 c 0.3827,0.95644 1.33901,1.33901 2.29545,1.33901 0.95643,0 1.72151,-0.57373 2.10409,-1.53029 l 3.25175,-9.56415 4.7821,30.7966 c 0.19103,1.14766 1.14772,1.91281 2.29544,1.91281 1.14766,0 2.1041,-0.95644 2.29538,-2.10416 l 4.39954,-42.2735 3.63438,26.97087 c 0.19103,1.14772 1.14766,1.91281 2.29538,1.91281 0.95637,0 2.10409,-0.76509 2.29538,-1.91281 l 3.25181,-16.06777 4.78211,46.67309 c 0,1.33895 1.14765,2.10409 2.29538,2.10409 z"
       id="path4-22"
       inkscape:export-xdpi="90"
       inkscape:export-ydpi="90"
       inkscape:export-filename="/home/david/Documents/Uni/MA/paper/sampl_bsp.png" />
    <path
       style="fill:none;fill-rule:evenodd;stroke:#000000;stroke-width:3.43635082;stroke-linecap:round;stroke-linejoin:miter;stroke-miterlimit:4;stroke-dasharray:none;stroke-opacity:1"
       d="m 249.0979,383.14712 c 20.07923,-85.03291 20.04457,-84.88611 20.04457,-84.88611"
       id="path155499"
       inkscape:connector-curvature="0"
       inkscape:export-filename="/home/david/Documents/Uni/MA/paper/sampl_bsp.png"
       inkscape:export-xdpi="90"
       inkscape:export-ydpi="90" />
    <path
       style="fill:none;fill-rule:evenodd;stroke:#000000;stroke-width:2.98690987;stroke-linecap:round;stroke-linejoin:miter;stroke-miterlimit:4;stroke-dasharray:none;stroke-opacity:1"
       d="m 269.10715,298.42038 c 0,118.95508 0,118.95508 0,118.95508"
       id="path155516"
       inkscape:connector-curvature="0"
       inkscape:export-filename="/home/david/Documents/Uni/MA/paper/sampl_bsp.png"
       inkscape:export-xdpi="90"
       inkscape:export-ydpi="90" />
    <path
       style="fill:none;fill-rule:evenodd;stroke:#000000;stroke-width:3;stroke-linecap:round;stroke-linejoin:miter;stroke-opacity:1;stroke-miterlimit:4;stroke-dasharray:none"
       d="m 268.92857,416.29078 c 187.5,0 187.5,0 187.5,0 l 0,-2.14286 0,3.92857 0,-1.07143"
       id="path155518"
       inkscape:connector-curvature="0"
       inkscape:export-filename="/home/david/Documents/Uni/MA/paper/sampl_bsp.png"
       inkscape:export-xdpi="90"
       inkscape:export-ydpi="90" />
    <path
       inkscape:connector-curvature="0"
       style="fill:#000000"
       d="m 526.28947,422.44656 c 0,0 0,0 0,0 -1.14765,0 -2.29538,-0.95637 -2.29538,-2.1041 l -4.20824,-61.59314 -3.82568,46.29045 c -0.19103,1.14772 -1.14772,2.10416 -2.29537,2.10416 0,0 0,0 0,0 -1.14772,0 -2.10409,-0.95644 -2.29538,-2.10416 l -4.39953,-42.27349 -3.63439,26.97087 c -0.19103,1.14772 -1.14766,1.9128 -2.29538,1.9128 -1.14772,0 -2.10409,-0.76508 -2.29538,-1.9128 l -4.59082,-23.1452 -3.4431,8.41643 c -0.3827,0.95637 -1.14772,1.33894 -2.10409,1.33894 l -11.47702,0 c -1.33893,0 -2.29537,-0.95643 -2.29537,-2.29538 0,-1.33894 0.95644,-2.29537 2.29537,-2.29537 l 9.7555,0 5.73848,-13.96369 c 0.3827,-0.95643 1.33895,-1.53029 2.29538,-1.33894 0.95643,0 1.9128,0.76508 2.10409,1.9128 l 3.63439,17.40672 4.39953,-32.70934 c 0.19103,-1.14772 1.14766,-1.91287 2.29538,-1.91287 0,0 0,0 0,0 1.14772,0 2.10409,0.95643 2.29538,2.10415 l 3.82567,36.53502 4.20818,-51.83764 c 0.19103,-1.14772 1.14779,-2.10416 2.29544,-2.10416 0,0 0,0 0,0 1.14773,0 2.29545,0.95644 2.29545,2.10416 l 4.39947,65.22747 3.63438,-34.62222 c 0.19103,-1.14772 0.95644,-2.10409 2.10409,-2.10409 1.14772,0 2.10416,0.76508 2.29545,1.9128 l 3.63432,17.40672 4.39953,-32.70934 c 0.19103,-1.14772 1.14766,-1.91287 2.29538,-1.91287 0,0 0,0 0,0 1.14772,0 2.10415,0.95643 2.29538,2.10415 l 4.39953,43.80379 3.82567,-22.5714 c 0.19104,-0.95643 0.95644,-1.9128 2.10416,-1.9128 1.14766,0 2.10409,0.57373 2.29538,1.53023 l 4.39953,13.00725 3.82561,-8.60772 c 0.3827,-0.76514 1.14772,-1.339 1.91287,-1.339 0.76508,0 1.72151,0.3827 2.10409,0.95643 l 4.01696,5.92976 4.59075,-10.13801 c 0.38271,-0.76508 1.33901,-1.33894 2.29538,-1.33894 0.95644,0 1.72158,0.57373 2.10416,1.53023 l 4.59075,13.38982 3.82568,-7.46005 c 0.3827,-0.57374 0.95643,-1.14766 1.72158,-1.14766 0.76508,-0.19103 1.53023,0.19103 1.9128,0.57373 l 4.97333,4.78204 4.78211,-3.44309 c 0.76515,-0.57374 1.53029,-0.57374 2.29538,-0.19104 l 5.54725,2.67802 5.54719,-1.33901 c 0.19103,0 0.3827,0 0.57374,0 l 20.46724,0 c 1.33901,0 2.29538,0.95637 2.29538,2.29538 0,1.33901 -0.95637,2.29538 -2.29538,2.29538 l -20.46724,0 -5.92977,1.33901 c -0.57373,0.19103 -1.14772,0 -1.53029,-0.19104 l -4.97333,-2.48666 -5.16468,3.82567 c -0.95637,0.57373 -2.1041,0.57373 -3.06053,-0.19103 l -4.0169,-4.01696 -4.7821,9.56415 c -0.3827,0.76515 -1.33901,1.33901 -2.29538,1.33901 -0.95643,0 -1.72158,-0.76521 -2.10416,-1.5303 l -4.39947,-13.00725 -3.82567,8.60772 c -0.3827,0.76515 -1.14772,1.33901 -1.91287,1.33901 -0.76508,0 -1.72151,-0.3827 -2.10409,-0.95644 l -4.01696,-6.12105 -4.59075,10.13801 c -0.3827,0.95644 -1.33901,1.33901 -2.29545,1.33901 -0.95643,0 -1.72151,-0.57373 -2.10409,-1.53029 l -3.25175,-9.56415 -4.7821,30.7966 c -0.19103,1.14766 -1.14772,1.91281 -2.29544,1.91281 -1.14766,0 -2.1041,-0.95644 -2.29538,-2.10416 l -4.39954,-42.2735 -3.63438,26.97087 c -0.19103,1.14772 -1.14766,1.91281 -2.29538,1.91281 -0.95637,0 -2.10409,-0.76509 -2.29538,-1.91281 l -3.25181,-16.06777 -4.78211,46.67309 c 0,1.33895 -1.14765,2.10409 -2.29538,2.10409 z"
       id="path4-22-9"
       inkscape:export-xdpi="90"
       inkscape:export-ydpi="90"
       inkscape:export-filename="/home/david/Documents/Uni/MA/paper/sampl_bsp.png" />
    <path
       style="fill:none;fill-rule:evenodd;stroke:#000000;stroke-width:3;stroke-linecap:round;stroke-linejoin:miter;stroke-opacity:1;stroke-miterlimit:4;stroke-dasharray:none"
       d="m 457.5,416.29078 c 17.85714,-42.5 17.85714,-42.5 17.85714,-42.5"
       id="path155544"
       inkscape:connector-curvature="0"
       inkscape:export-filename="/home/david/Documents/Uni/MA/paper/sampl_bsp.png"
       inkscape:export-xdpi="90"
       inkscape:export-ydpi="90" />
    <path
       style="fill:none;fill-rule:evenodd;stroke:#000000;stroke-width:0.9400329px;stroke-linecap:butt;stroke-linejoin:miter;stroke-opacity:1;marker-start:url(#Arrow1Lstart);marker-end:url(#Arrow1Lend)"
       d="m 75.360062,253.13478 c 0,334.75102 0,334.75102 0,334.75102 582.209508,-1.01133 604.499308,0 604.499308,0"
       id="path155546"
       inkscape:connector-curvature="0"
       inkscape:export-filename="/home/david/Documents/Uni/MA/paper/sampl_bsp.png"
       inkscape:export-xdpi="90"
       inkscape:export-ydpi="90" />
    <path
       style="fill:none;fill-rule:evenodd;stroke:#000000;stroke-width:1.35290682px;stroke-linecap:butt;stroke-linejoin:miter;stroke-opacity:1"
       d="m 267.515,576.25533 c 0,38.82775 0,38.82775 0,38.82775"
       id="path156448"
       inkscape:connector-curvature="0"
       inkscape:export-filename="/home/david/Documents/Uni/MA/paper/sampl_bsp.png"
       inkscape:export-xdpi="90"
       inkscape:export-ydpi="90" />
    <path
       style="fill:none;fill-rule:evenodd;stroke:#000000;stroke-width:1px;stroke-linecap:butt;stroke-linejoin:miter;stroke-opacity:1"
       d="m 461.13464,575.5702 c 0,21.21321 0,21.21321 0,21.21321"
       id="path156448-2"
       inkscape:connector-curvature="0"
       inkscape:export-filename="/home/david/Documents/Uni/MA/paper/sampl_bsp.png"
       inkscape:export-xdpi="90"
       inkscape:export-ydpi="90" />
    <path
       style="fill:none;fill-rule:evenodd;stroke:#000000;stroke-width:1px;stroke-linecap:butt;stroke-linejoin:miter;stroke-opacity:1"
       d="m 328.29957,575.5702 c 0,21.21321 0,21.21321 0,21.21321"
       id="path156448-3"
       inkscape:connector-curvature="0"
       inkscape:export-filename="/home/david/Documents/Uni/MA/paper/sampl_bsp.png"
       inkscape:export-xdpi="90"
       inkscape:export-ydpi="90" />
    <path
       style="fill:none;fill-rule:evenodd;stroke:#000000;stroke-width:1px;stroke-linecap:butt;stroke-linejoin:miter;stroke-opacity:1"
       d="m 394.96965,575.5702 c 0,21.21321 0,21.21321 0,21.21321"
       id="path156448-3-4"
       inkscape:connector-curvature="0"
       inkscape:export-filename="/home/david/Documents/Uni/MA/paper/sampl_bsp.png"
       inkscape:export-xdpi="90"
       inkscape:export-ydpi="90" />
    <rect
       style="opacity:1;fill:#0000ff;fill-opacity:0.11682243;stroke:none;stroke-width:3;stroke-linecap:round;stroke-linejoin:bevel;stroke-miterlimit:4;stroke-dasharray:none;stroke-dashoffset:0;stroke-opacity:1"
       id="rect156501"
       width="192.43405"
       height="32.324883"
       x="75.256363"
       y="574.05499"
       inkscape:export-filename="/home/david/Documents/Uni/MA/paper/sampl_bsp.png"
       inkscape:export-xdpi="90"
       inkscape:export-ydpi="90" />
    <rect
       style="opacity:1;fill:#0000ff;fill-opacity:0.11682243;stroke:none;stroke-width:3;stroke-linecap:round;stroke-linejoin:bevel;stroke-miterlimit:4;stroke-dasharray:none;stroke-dashoffset:0;stroke-opacity:1"
       id="rect156501-4"
       width="192.43405"
       height="32.324883"
       x="461.38718"
       y="573.80243"
       inkscape:export-filename="/home/david/Documents/Uni/MA/paper/sampl_bsp.png"
       inkscape:export-xdpi="90"
       inkscape:export-ydpi="90" />
    <flowRoot
       xml:space="preserve"
       id="flowRoot156537"
       style="font-style:normal;font-weight:normal;font-size:11.95310497px;line-height:125%;font-family:sans-serif;letter-spacing:0px;word-spacing:0px;fill:#000000;fill-opacity:1;stroke:none;stroke-width:1px;stroke-linecap:butt;stroke-linejoin:miter;stroke-opacity:1"
       transform="translate(41.416254,118.18785)"
       inkscape:export-filename="/home/david/Documents/Uni/MA/paper/sampl_bsp.png"
       inkscape:export-xdpi="90"
       inkscape:export-ydpi="90"><flowRegion
         id="flowRegion156539"><rect
           id="rect156541"
           width="96.595673"
           height="56.448097"
           x="117.37298"
           y="474.6239" /></flowRegion><flowPara
         id="flowPara156543">z=0</flowPara></flowRoot>    <flowRoot
       xml:space="preserve"
       id="flowRoot156537-4"
       style="font-style:normal;font-weight:normal;font-size:11.95310497px;line-height:125%;font-family:sans-serif;letter-spacing:0px;word-spacing:0px;fill:#000000;fill-opacity:1;stroke:none;stroke-width:1px;stroke-linecap:butt;stroke-linejoin:miter;stroke-opacity:1"
       transform="translate(419.28907,119.04136)"
       inkscape:export-filename="/home/david/Documents/Uni/MA/paper/sampl_bsp.png"
       inkscape:export-xdpi="90"
       inkscape:export-ydpi="90"><flowRegion
         id="flowRegion156539-1"><rect
           id="rect156541-1"
           width="96.595673"
           height="56.448097"
           x="117.37298"
           y="474.6239" /></flowRegion><flowPara
         id="flowPara156543-6">z=0</flowPara></flowRoot>    <flowRoot
       xml:space="preserve"
       id="flowRoot156593"
       style="font-style:normal;font-weight:normal;font-size:10.78664494px;line-height:125%;font-family:sans-serif;letter-spacing:0px;word-spacing:0px;fill:#000000;fill-opacity:1;stroke:none;stroke-width:1px;stroke-linecap:butt;stroke-linejoin:miter;stroke-opacity:1"
       transform="translate(90.913729,156.04826)"
       inkscape:export-filename="/home/david/Documents/Uni/MA/paper/sampl_bsp.png"
       inkscape:export-xdpi="90"
       inkscape:export-ydpi="90"><flowRegion
         id="flowRegion156595"><rect
           id="rect156597"
           width="75.319687"
           height="39.362366"
           x="165.43898"
           y="450.83664" /></flowRegion><flowPara
         id="flowPara156599">t<flowSpan
   style="font-size:7.01131916px;baseline-shift:sub"
   id="flowSpan156601">spike</flowSpan></flowPara></flowRoot>    <path
       style="fill:none;fill-rule:evenodd;stroke:#000000;stroke-width:1px;stroke-linecap:butt;stroke-linejoin:miter;stroke-opacity:1"
       d="m 208.09142,576.56005 c 0,21.21321 0,21.21321 0,21.21321"
       id="path156448-3-8"
       inkscape:connector-curvature="0"
       inkscape:export-filename="/home/david/Documents/Uni/MA/paper/sampl_bsp.png"
       inkscape:export-xdpi="90"
       inkscape:export-ydpi="90" />
    <path
       style="fill:none;fill-rule:evenodd;stroke:#000000;stroke-width:1px;stroke-linecap:butt;stroke-linejoin:miter;stroke-opacity:0.77570093"
       d="m 153.03811,576.53974 c 0,21.21321 0,21.21321 0,21.21321"
       id="path156448-3-6"
       inkscape:connector-curvature="0"
       inkscape:export-filename="/home/david/Documents/Uni/MA/paper/sampl_bsp.png"
       inkscape:export-xdpi="90"
       inkscape:export-ydpi="90" />
    <path
       style="fill:none;fill-rule:evenodd;stroke:#000000;stroke-width:1px;stroke-linecap:butt;stroke-linejoin:miter;stroke-opacity:1"
       d="m 107.62186,576.58035 c 0,21.21321 0,21.21321 0,21.21321"
       id="path156448-3-5"
       inkscape:connector-curvature="0"
       inkscape:export-filename="/home/david/Documents/Uni/MA/paper/sampl_bsp.png"
       inkscape:export-xdpi="90"
       inkscape:export-ydpi="90" />
    <path
       style="fill:none;fill-rule:evenodd;stroke:#000000;stroke-width:1px;stroke-linecap:butt;stroke-linejoin:miter;stroke-opacity:1"
       d="m 515.1778,575.5702 c 0,21.21321 0,21.21321 0,21.21321"
       id="path156448-3-46"
       inkscape:connector-curvature="0"
       inkscape:export-filename="/home/david/Documents/Uni/MA/paper/sampl_bsp.png"
       inkscape:export-xdpi="90"
       inkscape:export-ydpi="90" />
    <path
       style="fill:none;fill-rule:evenodd;stroke:#000000;stroke-width:1px;stroke-linecap:butt;stroke-linejoin:miter;stroke-opacity:0.8037383"
       d="m 564.1702,575.5499 c 0,21.21321 0,21.21321 0,21.21321"
       id="path156448-3-46-8"
       inkscape:connector-curvature="0"
       inkscape:export-filename="/home/david/Documents/Uni/MA/paper/sampl_bsp.png"
       inkscape:export-xdpi="90"
       inkscape:export-ydpi="90" />
    <path
       style="fill:none;fill-rule:evenodd;stroke:#000000;stroke-width:1px;stroke-linecap:butt;stroke-linejoin:miter;stroke-opacity:1"
       d="m 613.66767,576.07528 c 0,21.21321 0,21.21321 0,21.21321"
       id="path156448-3-46-5"
       inkscape:connector-curvature="0"
       inkscape:export-filename="/home/david/Documents/Uni/MA/paper/sampl_bsp.png"
       inkscape:export-xdpi="90"
       inkscape:export-ydpi="90" />
    <rect
       style="opacity:1;fill:#550000;fill-opacity:0.4766355;stroke:none;stroke-width:3;stroke-linecap:round;stroke-linejoin:bevel;stroke-miterlimit:4;stroke-dasharray:none;stroke-dashoffset:0;stroke-opacity:1"
       id="rect156501-5"
       width="58.58884"
       height="32.324883"
       x="268.44806"
       y="573.54987"
       inkscape:export-filename="/home/david/Documents/Uni/MA/paper/sampl_bsp.png"
       inkscape:export-xdpi="90"
       inkscape:export-ydpi="90" />
    <rect
       style="opacity:1;fill:#550000;fill-opacity:0.30373833;stroke:none;stroke-width:3;stroke-linecap:round;stroke-linejoin:bevel;stroke-miterlimit:4;stroke-dasharray:none;stroke-dashoffset:0;stroke-opacity:1"
       id="rect156501-5-8"
       width="64.649757"
       height="32.324883"
       x="329.30972"
       y="573.0448"
       inkscape:export-filename="/home/david/Documents/Uni/MA/paper/sampl_bsp.png"
       inkscape:export-xdpi="90"
       inkscape:export-ydpi="90" />
    <rect
       style="opacity:1;fill:#550000;fill-opacity:0.10280374;stroke:none;stroke-width:3;stroke-linecap:round;stroke-linejoin:bevel;stroke-miterlimit:4;stroke-dasharray:none;stroke-dashoffset:0;stroke-opacity:1"
       id="rect156501-5-80"
       width="63.134525"
       height="32.324883"
       x="396.48486"
       y="572.53973"
       inkscape:export-filename="/home/david/Documents/Uni/MA/paper/sampl_bsp.png"
       inkscape:export-xdpi="90"
       inkscape:export-ydpi="90" />
    <flowRoot
       xml:space="preserve"
       id="flowRoot156537-0"
       style="font-style:normal;font-weight:normal;font-size:11.95310497px;line-height:125%;font-family:sans-serif;letter-spacing:0px;word-spacing:0px;fill:#000000;fill-opacity:1;stroke:none;stroke-width:1px;stroke-linecap:butt;stroke-linejoin:miter;stroke-opacity:1"
       transform="translate(165.78138,119.14289)"
       inkscape:export-filename="/home/david/Documents/Uni/MA/paper/sampl_bsp.png"
       inkscape:export-xdpi="90"
       inkscape:export-ydpi="90"><flowRegion
         id="flowRegion156539-6"><rect
           id="rect156541-5"
           width="96.595673"
           height="56.448097"
           x="117.37298"
           y="474.6239" /></flowRegion><flowPara
         id="flowPara156543-0">z=1</flowPara></flowRoot>    <flowRoot
       xml:space="preserve"
       id="flowRoot156537-9"
       style="font-style:normal;font-weight:normal;font-size:11.95310497px;line-height:125%;font-family:sans-serif;letter-spacing:0px;word-spacing:0px;fill:#000000;fill-opacity:1;stroke:none;stroke-width:1px;stroke-linecap:butt;stroke-linejoin:miter;stroke-opacity:1"
       transform="translate(233.46161,118.63782)"
       inkscape:export-filename="/home/david/Documents/Uni/MA/paper/sampl_bsp.png"
       inkscape:export-xdpi="90"
       inkscape:export-ydpi="90"><flowRegion
         id="flowRegion156539-5"><rect
           id="rect156541-6"
           width="96.595673"
           height="56.448097"
           x="117.37298"
           y="474.6239" /></flowRegion><flowPara
         id="flowPara156543-08">z=1</flowPara></flowRoot>    <flowRoot
       xml:space="preserve"
       id="flowRoot156537-8"
       style="font-style:normal;font-weight:normal;font-size:11.95310497px;line-height:125%;font-family:sans-serif;letter-spacing:0px;word-spacing:0px;fill:#000000;fill-opacity:1;stroke:none;stroke-width:1px;stroke-linecap:butt;stroke-linejoin:miter;stroke-opacity:1"
       transform="translate(295.58599,118.13274)"
       inkscape:export-filename="/home/david/Documents/Uni/MA/paper/sampl_bsp.png"
       inkscape:export-xdpi="90"
       inkscape:export-ydpi="90"><flowRegion
         id="flowRegion156539-7"><rect
           id="rect156541-7"
           width="96.595673"
           height="56.448097"
           x="117.37298"
           y="474.6239" /></flowRegion><flowPara
         id="flowPara156543-2">z=1</flowPara></flowRoot>    <flowRoot
       xml:space="preserve"
       id="flowRoot156741"
       style="font-style:normal;font-weight:normal;font-size:11.87442303px;line-height:125%;font-family:sans-serif;letter-spacing:0px;word-spacing:0px;fill:#000000;fill-opacity:1;stroke:none;stroke-width:1px;stroke-linecap:butt;stroke-linejoin:miter;stroke-opacity:1"
       transform="translate(77.27667,119.70308)"
       inkscape:export-filename="/home/david/Documents/Uni/MA/paper/sampl_bsp.png"
       inkscape:export-xdpi="90"
       inkscape:export-ydpi="90"><flowRegion
         id="flowRegion156743"><rect
           id="rect156745"
           width="78.717049"
           height="37.034496"
           x="194.40881"
           y="451.92529" /></flowRegion><flowPara
         id="flowPara156751">ξ=τ<flowSpan
   style="font-size:7.71837521px;baseline-shift:sub"
   id="flowSpan156753">ref</flowSpan>=3</flowPara></flowRoot>    <flowRoot
       transform="translate(153.65995,120.12367)"
       xml:space="preserve"
       id="flowRoot156741-7"
       style="font-style:normal;font-weight:normal;font-size:11.87442303px;line-height:125%;font-family:sans-serif;letter-spacing:0px;word-spacing:0px;fill:#000000;fill-opacity:1;stroke:none;stroke-width:1px;stroke-linecap:butt;stroke-linejoin:miter;stroke-opacity:1"
       inkscape:export-filename="/home/david/Documents/Uni/MA/paper/sampl_bsp.png"
       inkscape:export-xdpi="90"
       inkscape:export-ydpi="90"><flowRegion
         id="flowRegion156743-8"><rect
           id="rect156745-8"
           width="78.717049"
           height="37.034496"
           x="194.40881"
           y="451.92529" /></flowRegion><flowPara
         id="flowPara156751-7">ξ=2</flowPara></flowRoot>    <flowRoot
       transform="translate(220.33001,120.12367)"
       xml:space="preserve"
       id="flowRoot156741-6"
       style="font-style:normal;font-weight:normal;font-size:11.87442303px;line-height:125%;font-family:sans-serif;letter-spacing:0px;word-spacing:0px;fill:#000000;fill-opacity:1;stroke:none;stroke-width:1px;stroke-linecap:butt;stroke-linejoin:miter;stroke-opacity:1"
       inkscape:export-filename="/home/david/Documents/Uni/MA/paper/sampl_bsp.png"
       inkscape:export-xdpi="90"
       inkscape:export-ydpi="90"><flowRegion
         id="flowRegion156743-7"><rect
           id="rect156745-2"
           width="78.717049"
           height="37.034496"
           x="194.40881"
           y="451.92529" /></flowRegion><flowPara
         id="flowPara156751-5">ξ=1</flowPara></flowRoot>    <flowRoot
       transform="translate(-36.134622,119.78628)"
       xml:space="preserve"
       id="flowRoot156741-6-4"
       style="font-style:normal;font-weight:normal;font-size:11.87442303px;line-height:125%;font-family:sans-serif;letter-spacing:0px;word-spacing:0px;fill:#000000;fill-opacity:1;stroke:none;stroke-width:1px;stroke-linecap:butt;stroke-linejoin:miter;stroke-opacity:1"
       inkscape:export-filename="/home/david/Documents/Uni/MA/paper/sampl_bsp.png"
       inkscape:export-xdpi="90"
       inkscape:export-ydpi="90"><flowRegion
         id="flowRegion156743-7-6"><rect
           id="rect156745-2-0"
           width="78.717049"
           height="37.034496"
           x="194.40881"
           y="451.92529" /></flowRegion><flowPara
         id="flowPara156751-5-0">ξ=0</flowPara></flowRoot>    <flowRoot
       transform="translate(341.26086,120.0792)"
       xml:space="preserve"
       id="flowRoot156741-6-7"
       style="font-style:normal;font-weight:normal;font-size:11.87442303px;line-height:125%;font-family:sans-serif;letter-spacing:0px;word-spacing:0px;fill:#000000;fill-opacity:1;stroke:none;stroke-width:1px;stroke-linecap:butt;stroke-linejoin:miter;stroke-opacity:1"
       inkscape:export-filename="/home/david/Documents/Uni/MA/paper/sampl_bsp.png"
       inkscape:export-xdpi="90"
       inkscape:export-ydpi="90"><flowRegion
         id="flowRegion156743-7-5"><rect
           id="rect156745-2-3"
           width="78.717049"
           height="37.034496"
           x="194.40881"
           y="451.92529" /></flowRegion><flowPara
         id="flowPara156751-5-7">ξ=0</flowPara></flowRoot>    <flowRoot
       xml:space="preserve"
       id="flowRoot156851"
       style="fill:black;stroke:none;stroke-opacity:1;stroke-width:1px;stroke-linejoin:miter;stroke-linecap:butt;fill-opacity:1;font-family:sans-serif;font-style:normal;font-weight:normal;font-size:40px;line-height:125%;letter-spacing:0px;word-spacing:0px"><flowRegion
         id="flowRegion156853"><rect
           id="rect156855"
           width="645.48749"
           height="546.49255"
           x="44.95179"
           y="119.48633" /></flowRegion><flowPara
         id="flowPara156857"></flowPara></flowRoot>  </g>
</svg>
