<svg xmlns="http://www.w3.org/2000/svg" xmlns:xlink="http://www.w3.org/1999/xlink" version="1.1" x="0px" y="0px" viewBox="0 0 100 125" enable-background="new 0 0 100 100" xml:space="preserve"><path fill="#000000" d="M32.8,75.3C32.8,75.3,32.8,75.3,32.8,75.3c-0.6,0-1.2-0.5-1.2-1.1L29.4,42l-2,24.2c-0.1,0.6-0.6,1.1-1.2,1.1  c0,0,0,0,0,0c-0.6,0-1.1-0.5-1.2-1.1l-2.3-22.1l-1.9,14.1c-0.1,0.6-0.6,1-1.2,1c-0.6,0-1.1-0.4-1.2-1L16,46.1l-1.8,4.4  c-0.2,0.5-0.6,0.7-1.1,0.7h-6c-0.7,0-1.2-0.5-1.2-1.2s0.5-1.2,1.2-1.2h5.1l3-7.3c0.2-0.5,0.7-0.8,1.2-0.7c0.5,0,1,0.4,1.1,1l1.9,9.1  l2.3-17.1c0.1-0.6,0.6-1,1.2-1c0,0,0,0,0,0c0.6,0,1.1,0.5,1.2,1.1l2,19.1l2.2-27.1c0.1-0.6,0.6-1.1,1.2-1.1c0,0,0,0,0,0  c0.6,0,1.2,0.5,1.2,1.1l2.3,34.1l1.9-18.1c0.1-0.6,0.5-1.1,1.1-1.1c0.6,0,1.1,0.4,1.2,1l1.9,9.1l2.3-17.1c0.1-0.6,0.6-1,1.2-1  c0,0,0,0,0,0c0.6,0,1.1,0.5,1.2,1.1l2.3,22.9L48.1,45c0.1-0.5,0.5-1,1.1-1c0.6,0,1.1,0.3,1.2,0.8l2.3,6.8l2-4.5  c0.2-0.4,0.6-0.7,1-0.7c0.4,0,0.9,0.2,1.1,0.5l2.1,3.1l2.4-5.3c0.2-0.4,0.7-0.7,1.2-0.7c0.5,0,0.9,0.3,1.1,0.8l2.4,7l2-3.9  c0.2-0.3,0.5-0.6,0.9-0.6c0.4-0.1,0.8,0.1,1,0.3l2.6,2.5l2.5-1.8c0.4-0.3,0.8-0.3,1.2-0.1l2.9,1.4l2.9-0.7c0.1,0,0.2,0,0.3,0h10.7  c0.7,0,1.2,0.5,1.2,1.2s-0.5,1.2-1.2,1.2H82.3L79.2,52c-0.3,0.1-0.6,0-0.8-0.1l-2.6-1.3l-2.7,2c-0.5,0.3-1.1,0.3-1.6-0.1l-2.1-2.1  l-2.5,5c-0.2,0.4-0.7,0.7-1.2,0.7c-0.5,0-0.9-0.4-1.1-0.8l-2.3-6.8l-2,4.5c-0.2,0.4-0.6,0.7-1,0.7c-0.4,0-0.9-0.2-1.1-0.5L56.1,50  l-2.4,5.3c-0.2,0.5-0.7,0.7-1.2,0.7c-0.5,0-0.9-0.3-1.1-0.8l-1.7-5l-2.5,16.1c-0.1,0.6-0.6,1-1.2,1c-0.6,0-1.1-0.5-1.2-1.1  l-2.3-22.1l-1.9,14.1c-0.1,0.6-0.6,1-1.2,1c-0.5,0-1.1-0.4-1.2-1l-1.7-8.4L34,74.2C34,74.9,33.4,75.3,32.8,75.3z"/><text x="0" y="115" fill="#000000" font-size="5px" font-weight="bold" font-family="'Helvetica Neue', Helvetica, Arial-Unicode, Arial, Sans-serif">Created by Blair Adams</text><text x="0" y="120" fill="#000000" font-size="5px" font-weight="bold" font-family="'Helvetica Neue', Helvetica, Arial-Unicode, Arial, Sans-serif">from the Noun Project</text></svg>